<?xml version="1.0" encoding="UTF-8" standalone="no"?>
<!DOCTYPE svg PUBLIC "-//W3C//DTD SVG 1.1//EN" "http://www.w3.org/Graphics/SVG/1.1/DTD/svg11.dtd">
<svg width="100%" height="100%" viewBox="0 0 739 123" version="1.1" xmlns="http://www.w3.org/2000/svg" xmlns:xlink="http://www.w3.org/1999/xlink" xml:space="preserve" xmlns:serif="http://www.serif.com/" style="fill-rule:evenodd;clip-rule:evenodd;stroke-linejoin:round;stroke-miterlimit:1.41421;">
    <g transform="matrix(1,0,0,1,-7.22559,-31.9681)">
        <g transform="matrix(1,0,0,1,-209.048,-131.185)">
            <g transform="matrix(1,0,0,1,0,1.50297)">
                <g transform="matrix(1,0,0,1,-19.0376,1.00198)">
                    <g transform="matrix(1.06091,0,0,1.10426,226.126,268.745)">
                        <text x="0px" y="0px" style="font-family:'Arial-Black', 'Arial', sans-serif;font-weight:900;font-size:133.246px;fill:rgb(49,43,38);stroke:rgb(49,43,38);stroke-width:1.52px;">M</text>
                    </g>
                    <g transform="matrix(-2.06305,0,0,2.14734,630.468,282.063)">
                        <text x="0px" y="0px" style="font-family:'Arial-Black', 'Arial', sans-serif;font-weight:900;font-size:68.521px;fill:rgb(49,43,38);stroke:rgb(49,43,38);stroke-width:0.78px;">I</text>
                    </g>
                    <g transform="matrix(1.03184,0,0,1.074,354.417,267.817)">
                        <text x="0px" y="0px" style="font-family:'Arial-Black', 'Arial', sans-serif;font-weight:900;font-size:137px;fill:rgb(49,43,38);stroke:rgb(49,43,38);stroke-width:1.56px;">U</text>
                    </g>
                    <g transform="matrix(1.03184,0,0,1.074,467.757,268.592)">
                        <text x="0px" y="0px" style="font-family:'Arial-Black', 'Arial', sans-serif;font-weight:900;font-size:137px;fill:rgb(49,43,38);stroke:rgb(49,43,38);stroke-width:1.56px;">S</text>
                    </g>
                    <g transform="matrix(1.03184,0,0,1.074,876.143,268.592)">
                        <text x="0px" y="0px" style="font-family:'Arial-Black', 'Arial', sans-serif;font-weight:900;font-size:137px;fill:rgb(49,43,38);stroke:rgb(49,43,38);stroke-width:1.56px;">S</text>
                    </g>
                    <g transform="matrix(1.03184,0,0,1.074,634.401,279.93)">
                        <text x="0px" y="0px" style="font-family:'Arial-Black', 'Arial', sans-serif;font-weight:900;font-size:137px;fill:rgb(49,43,38);stroke:rgb(49,43,38);stroke-width:1.56px;">N</text>
                    </g>
                    <g transform="matrix(1.03184,0,0,1.074,757.931,280.215)">
                        <text x="0px" y="0px" style="font-family:'Arial-Black', 'Arial', sans-serif;font-weight:900;font-size:137px;fill:rgb(49,43,38);stroke:rgb(49,43,38);stroke-width:1.56px;">G</text>
                    </g>
                </g>
                <g transform="matrix(1,0,0,1,-1.50477,-221.392)">
                    <g>
                        <g transform="matrix(1.03909,0,0,1.10426,215.615,491.138)">
                            <text x="0px" y="0px" style="font-family:'Arial-Black', 'Arial', sans-serif;font-weight:900;font-size:133.246px;fill:rgb(245,243,245);stroke:black;stroke-width:1.53px;">M</text>
                        </g>
                        <g transform="matrix(-2.02061,0,0,2.14734,610.744,504.457)">
                            <text x="0px" y="0px" style="font-family:'Arial-Black', 'Arial', sans-serif;font-weight:900;font-size:68.521px;fill:rgb(245,243,245);stroke:black;stroke-width:0.79px;">I</text>
                        </g>
                        <g transform="matrix(1.01061,0,0,1.074,343.265,490.211)">
                            <text x="0px" y="0px" style="font-family:'Arial-Black', 'Arial', sans-serif;font-weight:900;font-size:137px;fill:rgb(245,243,245);stroke:black;stroke-width:1.58px;">U</text>
                        </g>
                        <g transform="matrix(1.01061,0,0,1.074,456.273,490.986)">
                            <text x="0px" y="0px" style="font-family:'Arial-Black', 'Arial', sans-serif;font-weight:900;font-size:137px;fill:rgb(245,243,245);stroke:black;stroke-width:1.58px;">S</text>
                        </g>
                        <g transform="matrix(1.01061,0,0,1.074,850.401,490.986)">
                            <text x="0px" y="0px" style="font-family:'Arial-Black', 'Arial', sans-serif;font-weight:900;font-size:137px;fill:rgb(245,243,245);stroke:black;stroke-width:1.58px;">S</text>
                        </g>
                        <g transform="matrix(1.01061,0,0,1.074,613.632,502.324)">
                            <text x="0px" y="0px" style="font-family:'Arial-Black', 'Arial', sans-serif;font-weight:900;font-size:137px;fill:rgb(245,243,245);stroke:black;stroke-width:1.58px;">N</text>
                        </g>
                        <g transform="matrix(1.01061,0,0,1.074,734.62,502.609)">
                            <text x="0px" y="0px" style="font-family:'Arial-Black', 'Arial', sans-serif;font-weight:900;font-size:137px;fill:rgb(245,243,245);stroke:black;stroke-width:1.58px;">G</text>
                        </g>
                    </g>
                </g>
            </g>
        </g>
    </g>
</svg>
